<?xml version="1.0" encoding="UTF-8"?>
<svg width="62px" height="62px" viewBox="0 0 62 62" version="1.1" xmlns="http://www.w3.org/2000/svg" xmlns:xlink="http://www.w3.org/1999/xlink">
    <!-- Generator: Sketch 52.2 (67145) - http://www.bohemiancoding.com/sketch -->
    <title>Group 7</title>
    <desc>Created with Sketch.</desc>
    <g id="Prototype" stroke="none" stroke-width="1" fill="none" fill-rule="evenodd">
        <g id="Fire-Map-1" transform="translate(-157.000000, -544.000000)">
            <g id="Group-7" transform="translate(157.000000, 544.000000)">
                <circle id="Oval" fill="#3FC380" fill-rule="nonzero" cx="31" cy="31" r="31"></circle>
                <path d="M18.65,19.7692308 L20.9523921,16.8795889 C21.7794981,15.8415206 23.5196816,15 24.8276817,15 L37.1723183,15 C38.4854756,15 40.2038625,15.8206371 41.0476079,16.8795889 L43.35,19.7692308 L45.2641068,19.7692308 C47.8796684,19.7692308 50,21.9158047 50,24.5194252 L50,41.2498056 C50,43.8732655 47.8755298,46 45.2641068,46 L16.7358932,46 C14.1203316,46 12,43.8534261 12,41.2498056 L12,24.5194252 C12,21.8959653 14.1244702,19.7692308 16.7358932,19.7692308 L18.65,19.7692308 Z M30.5,41 C35.7467051,41 40,36.7467051 40,31.5 C40,26.2532949 35.7467051,22 30.5,22 C25.2532949,22 21,26.2532949 21,31.5 C21,36.7467051 25.2532949,41 30.5,41 Z M31,37 C28.2385763,37 26,34.7614237 26,32 C26,29.2385763 28.2385763,27 31,27 C33.7614237,27 36,29.2385763 36,32 C36,34.7614237 33.7614237,37 31,37 Z" id="photo_camera" fill="#FFFFFF"></path>
            </g>
        </g>
    </g>
</svg>