<?xml version="1.0" encoding="UTF-8"?>
<svg width="28px" height="27px" viewBox="0 0 28 27" version="1.1" xmlns="http://www.w3.org/2000/svg" xmlns:xlink="http://www.w3.org/1999/xlink">
    <!-- Generator: Sketch 52.2 (67145) - http://www.bohemiancoding.com/sketch -->
    <title>Chart-14</title>
    <desc>Created with Sketch.</desc>
    <g id="Symbols" stroke="none" stroke-width="1" fill="none" fill-rule="evenodd">
        <g id="Bars/Tab-Bar/4-Items" transform="translate(-320.000000, -5.000000)" fill="#4A4A4A">
            <g id="Chart-14" transform="translate(320.000000, 5.000000)">
                <path d="M24.1866107,10.7349311 L24.5178434,10.7349311 C26.347191,10.8247605 27.9043192,9.44115966 27.9957866,7.64457216 C28.087254,5.84798466 26.6784237,4.31874164 24.8490761,4.22891226 L24.5178434,4.22891226 L24.5178434,4.22891226 C23.2632265,4.22891226 22.1162899,4.92506401 21.5552082,6.02713165 C20.9941265,7.12919929 21.1152118,8.44800809 21.8679819,9.43372735 L17.5553323,15.4322767 C17.3400797,15.3624278 17.1180943,15.3144656 16.892867,15.2891443 L16.5616343,15.2891443 L16.5616343,15.2891443 C15.8449454,15.2891443 15.1475893,15.5174336 14.5742382,15.9397462 L10.5000761,13.0836039 C10.6926884,12.1817769 10.4868255,11.2420342 9.93361968,10.497789 C9.38041384,9.75354384 8.53177134,9.27462731 7.59847781,9.17999262 L7.26724512,9.17999262 L7.26724512,9.17999262 C6.10374671,9.18181844 5.02653657,9.78303804 4.42951788,10.7638036 C3.83249919,11.7445691 3.80322405,12.9610525 4.35239749,13.9684225 L1.98739611,16.7595046 L1.98739611,0.975902829 C1.98739611,0.436926579 1.54250234,0 0.993698057,0 C0.444893774,0 0,0.436926579 0,0.975902829 L0,26.0240755 C-5.88221981e-06,26.2840322 0.105595892,26.533248 0.293385674,26.7164534 C0.481175457,26.8996589 0.735631662,27.0017113 1.00032271,26.9999783 L26.5052395,26.9999783 C27.0540438,26.9999783 27.4989376,26.5630517 27.4989376,26.0240755 C27.4989376,25.4850992 27.0540438,25.0481726 26.5052395,25.0481726 L1.99402077,25.0481726 L1.99402077,19.8043214 L5.78994734,15.3281804 C6.15196999,15.5098686 6.54495753,15.6245508 6.94926174,15.6664934 L7.28049443,15.6664934 C8.11869174,15.6670656 8.92594097,15.3555282 9.53950135,14.7946869 L13.4215484,17.5207088 C13.3481751,17.7318705 13.2971173,17.9498855 13.2691814,18.1713107 C13.1634044,19.0402291 13.4185631,19.9143555 13.9770283,20.596263 C14.5354936,21.2781704 15.3501586,21.7103399 16.2370262,21.7951632 L16.5682589,21.7951632 C17.8228758,21.7951632 18.9698124,21.0990114 19.5308941,19.9969438 C20.0919759,18.8948762 19.9708905,17.5760674 19.2181204,16.5903481 L23.53077,10.5917987 C23.743879,10.6612161 23.9636226,10.7091736 24.1866107,10.7349311 L24.1866107,10.7349311 Z M7.28049443,13.7472179 L7.14800136,13.7472179 C6.67464919,13.7239741 6.24988027,13.4544879 6.03370094,13.0402722 C5.81752161,12.6260565 5.84277465,12.1300404 6.09994748,11.7390684 C6.35712031,11.3480965 6.80714227,11.1215665 7.28049443,11.1448103 L7.4129875,11.1448103 C8.14472655,11.1807421 8.70825866,11.7924393 8.67167171,12.5110743 C8.63508476,13.2297093 8.01223347,13.7831496 7.28049443,13.7472179 L7.28049443,13.7472179 Z M24.5045941,6.19372996 L24.6370872,6.19372996 C25.3688262,6.22966171 25.9323583,6.84135892 25.8957714,7.55999392 C25.8591844,8.27862892 25.2363331,8.83206925 24.5045941,8.7961375 L24.372101,8.7961375 C23.640362,8.76020575 23.0768299,8.14850854 23.1134168,7.42987354 C23.1500038,6.71123854 23.772855,6.15779821 24.5045941,6.19372996 L24.5045941,6.19372996 Z M16.5550096,19.8563696 L16.4225166,19.8563696 C15.6907777,19.8204376 15.1272458,19.2087405 15.1638327,18.4901056 C15.2004197,17.7714708 15.8232707,17.2180305 16.5550096,17.253962 L16.6875027,17.253962 C17.4192416,17.289894 17.9827735,17.9015911 17.9461865,18.620226 C17.9095996,19.3388608 17.2867485,19.8923011 16.5550096,19.8563696 Z" id="Shape"></path>
            </g>
        </g>
    </g>
</svg>