<?xml version="1.0" encoding="UTF-8"?>
<svg width="24px" height="26px" viewBox="0 0 24 26" version="1.1" xmlns="http://www.w3.org/2000/svg" xmlns:xlink="http://www.w3.org/1999/xlink">
    <!-- Generator: Sketch 52.2 (67145) - http://www.bohemiancoding.com/sketch -->
    <title>Document</title>
    <desc>Created with Sketch.</desc>
    <g id="Symbols" stroke="none" stroke-width="1" fill="none" fill-rule="evenodd">
        <g id="Bars/Tab-Bar/4-Items" transform="translate(-39.000000, -7.000000)" fill="#D0021B">
            <g id="Document" transform="translate(39.000000, 7.000000)">
                <path d="M22.1052634,0 L7.5789495,0 C6.92531474,0.00218393085 6.31898503,0.334430075 5.97473918,0.879047619 L0.922108259,5.83142857 C0.349103321,6.16737445 -0.00120521061,6.77413039 3.11583811e-06,7.42857143 L3.11583811e-06,24.1428571 C3.11583811e-06,25.1685288 0.848305585,26 1.89473971,26 L22.1052634,26 C23.1516975,26 24,25.1685288 24,24.1428571 L24,1.85714286 C24,0.831471179 23.1516975,0 22.1052634,0 Z M5.6842129,3.78857143 L5.6842129,5.57142857 L3.86526577,5.57142857 L5.6842129,3.78857143 Z M22.1052634,24.1428571 L1.89473971,24.1428571 L1.89473971,7.49047619 L1.93263444,7.49047619 L1.97052918,7.45333333 L7.5789495,7.45333333 L7.5789495,1.95619048 L7.61684423,1.91904762 L7.61684423,1.88190476 L22.0800002,1.88190476 L22.1052634,24.1428571 Z" id="Shape"></path>
                <path d="M18.0217391,15 L4.97826087,15 C4.43798231,15 4,15.4477153 4,16 C4,16.5522847 4.43798231,17 4.97826087,17 L18.0217391,17 C18.5620177,17 19,16.5522847 19,16 C19,15.4477153 18.5620177,15 18.0217391,15 Z" id="Shape"></path>
                <path d="M16.025,19 L4.975,19 C4.43652237,19 4,19.4477153 4,20 C4,20.5522847 4.43652237,21 4.975,21 L16.025,21 C16.5634776,21 17,20.5522847 17,20 C17,19.4477153 16.5634776,19 16.025,19 Z" id="Shape"></path>
                <path d="M13,12 L17,12 C18.1045695,12 19,11.1045695 19,10 L19,6 C19,4.8954305 18.1045695,4 17,4 L13,4 C11.8954305,4 11,4.8954305 11,6 L11,10 C11,11.1045695 11.8954305,12 13,12 Z M13,6 L17,6 L17,10 L13,10 L13,6 Z" id="Shape"></path>
            </g>
        </g>
    </g>
</svg>