<?xml version="1.0" encoding="UTF-8"?>
<svg width="18px" height="17px" viewBox="0 0 18 17" version="1.1" xmlns="http://www.w3.org/2000/svg" xmlns:xlink="http://www.w3.org/1999/xlink">
    <!-- Generator: Sketch 52.2 (67145) - http://www.bohemiancoding.com/sketch -->
    <title>Fill 1</title>
    <desc>Created with Sketch.</desc>
    <g id="Prototype" stroke="none" stroke-width="1" fill="none" fill-rule="evenodd">
        <g id="Fire-Map-1" transform="translate(-332.000000, -78.000000)" fill="#FFFFFF">
            <g id="Group-6">
                <g id="Group-5" transform="translate(19.000000, 68.000000)">
                    <path d="M323.336815,18.1764213 C323.257083,18.2733995 323.21329,18.3947578 323.21329,18.5202696 L323.206247,23.8012494 L320.662419,25.0618762 L320.662419,18.520992 C320.662419,18.3954801 320.618715,18.2733995 320.538623,18.1764213 L314.690582,11.0835557 L329.185217,11.0835557 L323.336815,18.1764213 Z M330.824005,10.3107096 C330.734701,10.1209971 330.543544,10 330.334057,10 L313.541742,10 C313.332255,10 313.141007,10.1209971 313.051794,10.3107096 C312.96222,10.5005125 312.990483,10.7244473 313.12376,10.8863486 L319.578863,18.7156709 L319.578863,25.9352221 C319.578863,26.1224967 319.675932,26.2966783 319.834943,26.3954624 C319.922079,26.4494596 320.021225,26.477 320.120641,26.477 C320.202901,26.477 320.285432,26.4583087 320.36119,26.4205648 L323.988213,24.6230361 C324.172327,24.5317466 324.28908,24.3440205 324.28908,24.1380546 L324.296484,18.716032 L330.752038,10.8863486 C330.885316,10.7244473 330.913578,10.5001513 330.824005,10.3107096 L330.824005,10.3107096 Z" id="Fill-1"></path>
                </g>
            </g>
        </g>
    </g>
</svg>