<?xml version="1.0" encoding="UTF-8"?>
<svg width="16px" height="21px" viewBox="0 0 16 21" version="1.1" xmlns="http://www.w3.org/2000/svg" xmlns:xlink="http://www.w3.org/1999/xlink">
    <!-- Generator: Sketch 52.2 (67145) - http://www.bohemiancoding.com/sketch -->
    <title>Fill 1 Copy</title>
    <desc>Created with Sketch.</desc>
    <g id="Prototype" stroke="none" stroke-width="1" fill="none" fill-rule="evenodd">
        <g id="Search-Results" transform="translate(-20.000000, -759.000000)" fill="#F72816">
            <path d="M29.4148446,762.246239 C29.0119807,761.82279 28.7564541,761.310038 28.7564541,760.947768 C28.7564541,760.270471 29.3101575,759.621298 30.073235,759 C30.1495303,759.539025 29.7396622,760.352744 30.073235,760.947768 C30.3286365,761.392187 30.7315004,761.891001 30.7315004,762.246239 C30.7315004,762.730992 30.5505181,763.175534 30.073235,763.544711 C29.9969398,763.367955 29.870865,762.77293 29.4148446,762.246239 M27.432669,777.845531 C23.9796211,777.968138 24.3327055,775.418314 24.7976063,774.592384 C25.3868307,773.545911 26.8773397,773.341155 26.1142621,771.993592 C26.1283955,772.014684 27.736099,772.254347 28.7564541,773.293913 C30.3145031,774.88632 30.1352718,777.744017 27.432669,777.845531 M32.0481563,770.695121 C32.0481563,770.374913 33.4339782,766.129441 30.7315004,764.850212 C27.6120254,763.367955 26.753141,762.191967 26.7726526,760.298471 C26.7726526,760.373836 24.8880349,763.367955 26.1142621,764.850212 C28.0218935,767.140885 27.2161656,768.911897 26.1142621,768.747476 C24.2706687,768.47451 24.4924253,766.094411 24.7976063,765.49951 C23.8340348,765.397995 22.7178728,765.99302 22.1642945,766.799708 C20.4998074,769.232229 24.1038198,771.563112 22.8225599,773.293913 C21.8448551,774.611626 20.182119,772.014684 20.1874972,771.993592 C18.2053216,782.180306 32.5752189,782.439334 33.3648122,773.950118 C33.6008271,771.400417 35.9307089,770.012643 36,770.045947 C33.5245319,768.918928 32.0481563,770.777393 32.0481563,770.695121" id="Fill-1-Copy"></path>
        </g>
    </g>
</svg>