<?xml version="1.0" encoding="UTF-8"?>
<svg width="25px" height="26px" viewBox="0 0 25 26" version="1.1" xmlns="http://www.w3.org/2000/svg" xmlns:xlink="http://www.w3.org/1999/xlink">
    <!-- Generator: Sketch 52.2 (67145) - http://www.bohemiancoding.com/sketch -->
    <title>Map</title>
    <desc>Created with Sketch.</desc>
    <g id="Symbols" stroke="none" stroke-width="1" fill="none" fill-rule="evenodd">
        <g id="Bars/Tab-Bar/4-Items" transform="translate(-128.000000, -6.000000)" fill="#4A4A4A">
            <g id="Map" transform="translate(128.000000, 6.000000)">
                <path d="M23.8749992,2.54700091 L17.9226187,0.128724657 C17.4138453,-0.0746672341 16.8413698,-0.0301116992 16.3690474,0.249638469 C15.896725,-0.0301116992 15.3242494,-0.0746672341 14.815476,0.128724657 L8.86309548,2.54700091 C8.78308664,2.57955005 8.7055029,2.61793977 8.63095264,2.66186903 C8.55640239,2.61793977 8.47881864,2.57955005 8.3988098,2.54700091 L2.44642925,0.128724657 C1.89609373,-0.0938904235 1.27288642,-0.0248237901 0.782769428,0.313098912 C0.292652439,0.651021614 -0.000572832822,1.21381101 8.42982537e-07,1.81547234 L8.42982537e-07,21.7662514 C-0.00070757596,22.5095156 0.445141808,23.1779916 1.12500077,23.4529991 L7.07738132,25.8712753 C7.58615469,26.0746672 8.15863024,26.0301117 8.63095264,25.7503615 C9.10327504,26.0301117 9.67575059,26.0746672 10.184524,25.8712753 L16.1369045,23.4529991 C16.2169134,23.4204499 16.2944971,23.3820602 16.3690474,23.338131 C16.4435976,23.3820602 16.5211814,23.4204499 16.6011902,23.4529991 L22.5535708,25.8712753 C23.1039063,26.0938904 23.7271136,26.0248238 24.2172306,25.6869011 C24.7073476,25.3489784 25.0005728,24.786189 24.9999992,24.1845277 L24.9999992,4.23374859 C25.0007076,3.49048441 24.5548582,2.82200844 23.8749992,2.54700091 L23.8749992,2.54700091 Z M1.78571501,21.7662514 L1.78571501,1.81547234 L7.73809556,4.23374859 L7.73809556,24.1845277 L1.78571501,21.7662514 Z M9.52380972,24.1845277 L9.52380972,4.23374859 L15.4761903,1.81547234 L15.4761903,21.7662514 L9.52380972,24.1845277 Z M23.214285,24.1845277 L17.2619044,21.7662514 L17.2619044,1.81547234 L23.214285,4.23374859 L23.214285,24.1845277 Z" id="Shape"></path>
            </g>
        </g>
    </g>
</svg>