<?xml version="1.0" encoding="UTF-8"?>
<svg width="25px" height="30px" viewBox="0 0 25 30" version="1.1" xmlns="http://www.w3.org/2000/svg" xmlns:xlink="http://www.w3.org/1999/xlink">
    <!-- Generator: Sketch 52.2 (67145) - http://www.bohemiancoding.com/sketch -->
    <title>Notification</title>
    <desc>Created with Sketch.</desc>
    <g id="Symbols" stroke="none" stroke-width="1" fill="none" fill-rule="evenodd">
        <g id="Bars/Tab-Bar/4-Items" transform="translate(-226.000000, -4.000000)" fill="#4A4A4A">
            <g id="Notification" transform="translate(226.000000, 4.000000)">
                <path d="M24.140571,23.1458887 C23.8725026,22.8872754 21.695264,20.5665615 21.695264,13.2437223 C21.6441368,10.7403096 20.7563145,8.33372978 19.1845746,6.43810959 C18.3410296,5.38848117 17.296708,4.53323085 16.1181335,3.92683851 C16.1234403,3.86571254 16.1234403,3.80421295 16.1181335,3.74308697 C16.1181335,1.67583712 14.5081317,0 12.5220939,0 C10.5360561,0 8.92605428,1.67583712 8.92605428,3.74308697 C8.92074753,3.80421295 8.92074753,3.86571254 8.92605428,3.92683851 C7.74747977,4.53323085 6.70315814,5.38848117 5.85961323,6.43810959 C4.28787329,8.33372978 3.40005098,10.7403096 3.34892375,13.2437223 C3.34892375,20.5529503 1.17822348,22.8668586 0.910155071,23.1254719 C0.174561094,23.5835084 -0.167654309,24.5034815 0.0797968336,25.3577128 C0.340871185,26.2525834 1.14303956,26.8565452 2.04127299,26.8345308 L8.43568524,26.8345308 C8.07535031,27.2265919 8.07535031,27.8444259 8.43568524,28.236487 C9.4904659,29.3640128 10.9382368,30 12.4501731,30 C13.9621094,30 15.4098803,29.3640128 16.464661,28.236487 C16.8006563,27.8501766 16.8006563,27.2616748 16.464661,26.8753645 L22.9440705,26.8753645 C23.8423039,26.8973789 24.6444723,26.2934171 24.9055467,25.3985465 C25.1729473,24.5539501 24.8584913,23.6279576 24.140571,23.1458887 L24.140571,23.1458887 Z M12.5417087,2.01446135 C13.2261792,2.07521988 13.8187064,2.5338337 14.0716601,3.19863796 C13.0625128,2.97993798 12.0209045,2.97993798 11.0117573,3.19863796 C11.2647109,2.5338337 11.8572381,2.07521988 12.5417087,2.01446135 L12.5417087,2.01446135 Z M12.5417087,5.07698706 C16.6869616,5.07698706 19.7337879,9.43257917 19.7337879,13.2437223 C19.6970294,15.5375681 19.9542883,17.8262743 20.4987636,20.0493349 L4.58465373,20.0493349 C5.12912901,17.8262743 5.38638794,15.5375681 5.34962943,13.2437223 C5.34962943,9.43257917 8.39645572,5.07698706 12.5417087,5.07698706 Z M12.4959409,27.9710681 C11.5138323,27.9820343 10.5696969,27.576653 9.88063934,26.848142 L15.0458599,26.848142 C14.3731077,27.560422 13.4555343,27.9645003 12.4959409,27.9710681 L12.4959409,27.9710681 Z M2.08050251,24.8132638 C2.89832875,24.080944 3.52380782,23.144173 3.89813708,22.0910187 L21.1918185,22.0910187 C21.5661477,23.144173 22.1916268,24.080944 23.0094531,24.8132638 L2.08050251,24.8132638 Z" id="Shape"></path>
            </g>
        </g>
    </g>
</svg>