<?xml version="1.0" encoding="UTF-8"?>
<svg width="30px" height="35px" viewBox="0 0 30 35" version="1.1" xmlns="http://www.w3.org/2000/svg" xmlns:xlink="http://www.w3.org/1999/xlink">
    <!-- Generator: Sketch 52.2 (67145) - http://www.bohemiancoding.com/sketch -->
    <title>Security_announcement</title>
    <desc>Created with Sketch.</desc>
    <g id="Prototype" stroke="none" stroke-width="1" fill="none" fill-rule="evenodd">
        <g id="Fire-Map-1-Copy" transform="translate(-114.000000, -306.000000)" fill="#D0021B">
            <g id="Security_announcement" transform="translate(114.000000, 306.000000)">
                <path d="M29.9289473,4.99262508 C29.4631578,3.12934873 26.9131578,0 15,0 C9.38684209,0 5.31315788,0.621092115 2.88947368,1.84735091 C0.213157894,3.20101321 0,5.03243867 0,5.57390359 L0,16.1643204 C0.0125276237,22.7669302 3.54771151,28.8516159 9.25263156,32.0897593 L13.8394737,34.6935685 C14.5601338,35.1021438 15.4398661,35.1021438 16.1605263,34.6935685 L20.7473684,32.0897593 C26.4522884,28.8516159 29.9874723,22.7669302 29.9999999,16.1643204 L29.9999999,5.57390359 C30.0000443,5.37793807 29.9761808,5.18271163 29.9289473,4.99262508 Z M27.6315789,16.1404323 C27.6319143,21.8926423 24.5567583,27.1979932 19.5868421,30.0194522 L15,32.6471496 L10.4131579,30.0433404 C5.44324166,27.2218813 2.36808566,21.9165305 2.36842105,16.1643204 L2.36842105,5.57390359 C2.36842105,5.57390359 2.36842105,2.38881583 15,2.38881583 C26.8421052,2.38881583 27.6315789,5.57390359 27.6315789,5.57390359 L27.6315789,16.1404323 Z" id="Shape"></path>
                <circle id="Oval" cx="14" cy="26" r="1"></circle>
                <path d="M14,7 C13.4477153,7 13,7.56553505 13,8.26315789 L13,21.7368421 C13,22.4344649 13.4477153,23 14,23 C14.5522847,23 15,22.4344649 15,21.7368421 L15,8.26315789 C15,7.56553505 14.5522847,7 14,7 Z" id="Shape"></path>
            </g>
        </g>
    </g>
</svg>